<?xml version="1.0" encoding="UTF-8" standalone="no"?>
<!DOCTYPE svg PUBLIC "-//W3C//DTD SVG 1.1//EN"
 "http://www.w3.org/Graphics/SVG/1.1/DTD/svg11.dtd">
<!-- Generated by graphviz version 2.46.1 (20210213.1702)
 -->
<!-- Title: TopologySource Pages: 1 -->
<svg width="284pt" height="84pt"
 viewBox="0.00 0.00 284.00 84.00" xmlns="http://www.w3.org/2000/svg" xmlns:xlink="http://www.w3.org/1999/xlink">
<g id="graph0" class="graph" transform="scale(1 1) rotate(0) translate(4 80)">
<title>TopologySource</title>
<!-- Node1 -->
<g id="node1" class="node">
<title>Node1</title>
<g id="a_node1"><a xlink:title="Base class for an entity that provides access to a blocks topology.">
<polygon fill="#bfbfbf" stroke="black" points="92,-56.5 92,-75.5 178,-75.5 178,-56.5 92,-56.5"/>
<text text-anchor="middle" x="135" y="-63.5" font-family="Helvetica,sans-Serif" font-size="10.00">TopologySource</text>
</a>
</g>
</g>
<!-- Node2 -->
<g id="node2" class="node">
<title>Node2</title>
<g id="a_node2"><a xlink:href="classPhysicalTopologySource.html" target="_top" xlink:title="This topology source manages the topology of the physical Blocks devices that are currently connected...">
<polygon fill="none" stroke="black" points="0,-0.5 0,-19.5 124,-19.5 124,-0.5 0,-0.5"/>
<text text-anchor="middle" x="62" y="-7.5" font-family="Helvetica,sans-Serif" font-size="10.00">PhysicalTopologySource</text>
</a>
</g>
</g>
<!-- Node1&#45;&gt;Node2 -->
<g id="edge1" class="edge">
<title>Node1&#45;&gt;Node2</title>
<path fill="none" stroke="midnightblue" d="M114.86,-50.1C101.72,-40.38 85.02,-28.03 73.94,-19.83"/>
<polygon fill="midnightblue" stroke="midnightblue" points="113.15,-53.19 123.27,-56.32 117.31,-47.56 113.15,-53.19"/>
</g>
<!-- Node3 -->
<g id="node3" class="node">
<title>Node3</title>
<g id="a_node3"><a xlink:href="classRuleBasedTopologySource.html" target="_top" xlink:title="This topology source holds and applies a set of rules for transforming one device topology into anoth...">
<polygon fill="none" stroke="black" points="142,-0.5 142,-19.5 276,-19.5 276,-0.5 142,-0.5"/>
<text text-anchor="middle" x="209" y="-7.5" font-family="Helvetica,sans-Serif" font-size="10.00">RuleBasedTopologySource</text>
</a>
</g>
</g>
<!-- Node1&#45;&gt;Node3 -->
<g id="edge2" class="edge">
<title>Node1&#45;&gt;Node3</title>
<path fill="none" stroke="midnightblue" d="M155.03,-50.38C168.41,-40.62 185.56,-28.11 196.89,-19.83"/>
<polygon fill="midnightblue" stroke="midnightblue" points="152.9,-47.6 146.89,-56.32 157.03,-53.26 152.9,-47.6"/>
</g>
</g>
</svg>
